<?xml version="1.0" encoding="utf-8"?>
<!-- Generator: Adobe Illustrator 26.0.0, SVG Export Plug-In . SVG Version: 6.00 Build 0)  -->
<svg version="1.1" id="Layer_1" xmlns="http://www.w3.org/2000/svg" xmlns:xlink="http://www.w3.org/1999/xlink" x="0px" y="0px"
	 viewBox="0 0 225 214.9" style="enable-background:new 0 0 225 214.9;" xml:space="preserve">
<style type="text/css">
	.st0{fill:#005198;}
	.st1{fill:#FFFFFF;}
</style>
<g>
	<path class="st0" d="M652.7,95.6c-9.2,0-19.2,3.8-24.8,12.8l-2.1-10.5h-18.4V38h-90.5h-31.1h-44.6h-28.9h-36.3H219.9H38v144.2
		c0,18.1,14.7,32.7,32.7,32.7h149.2h265.9h121.6v-21.3h22v-49.8c0-11.8,8.8-18.4,18.6-18.4c4.9,0,9.8,1.9,14.1,5.5l15-25
		C670.9,99,662.7,95.6,652.7,95.6z M198.7,193.8h-21.1v-101l-44.8,62.3h-4.5L84.1,92.8v101h0c-11.6,0-21.1-9.4-21.1-21.1V62.2h24.5
		l43.4,61.7l43.3-61.7h24.5V193.8z"/>
	<path class="st0" d="M730.9,95.6c-27.6,0-53.2,14.7-53.2,50.4c0,34.8,25.8,49.8,53.2,49.8c26.9,0,53.6-15,53.6-49.8
		C784.5,111.1,759.5,95.6,730.9,95.6z M730.9,166.7c-12.6,0-18.4-9.8-18.4-20.7c0-10.9,6-21.3,18.4-21.3c12.4,0,18.6,10.3,18.6,21.3
		C749.6,157.5,743.2,166.7,730.9,166.7z"/>
	<path class="st0" d="M23.7,0h-9.5C6.4,0,0,6.4,0,14.3v9.5C0,31.6,6.4,38,14.3,38H38V14.3C38,6.4,31.6,0,23.7,0z"/>
</g>
<g>
	<g>
		<g>
			<g>
				<path class="st0" d="M-112.7-162.8c-13,0-24.1,9.6-24.1,24.4c0,14.9,11.1,24.1,24.1,24.1c15.8,0,23.7-12,23.7-24.1
					C-89-150.3-96.9-162.8-112.7-162.8z"/>
				<path class="st0" d="M81.5-224.2H57.1H22H-0.7v32.2l-28.5-32.2h-265.8v113.4c0,14.2,11.5,25.7,25.7,25.7H57.1V-135h24.5
					c32.8-0.5,49.3-19.7,49.3-44.7C130.8-203.7,114.5-224.2,81.5-224.2z M-168.7-101.7h-16.6v-79.4l-35.2,49h-3.5l-34.8-49v79.4h0
					c-9.1,0-16.6-7.4-16.6-16.6v-87h19.2l34.2,48.5l34-48.5h19.2V-101.7z M-73.8-101.8h-14.5l-0.7-11.8
					c-4.7,9.2-16.3,13.6-25.1,13.6c-21.3,0-37.9-13.5-37.9-38.3c0-24.4,17.3-38.3,38.2-38.3c10.5,0,20.6,5.3,24.8,12.9l0.4-11.1
					h14.8V-101.8z M-37.3-101.8h-15.2v-103.4h15.2V-101.8z M-0.7-101.8H-16v-73.1h15.2V-101.8z M81.5-164.2H57.1v-30.4h24.5
					c9.7,0,14.6,7.1,14.6,15.5C96.1-171,91.4-164.2,81.5-164.2z"/>
			</g>
			<path class="st0" d="M168.8-168.8c4.4-7.1,12.3-10.1,19.5-10.1c7.8,0,14.3,2.7,19.2,8l-11.8,19.7c-3.4-2.8-7.2-4.3-11.1-4.3
				c-7.7,0-14.6,5.2-14.6,14.5v39.2h-28v-75.3h25.1L168.8-168.8z"/>
			<path class="st0" d="M292-139.3c0,27.4-21,39.2-42.2,39.2c-21.6,0-41.9-11.8-41.9-39.2c0-28.1,20.1-39.6,41.9-39.6
				C272.3-178.9,292-166.8,292-139.3z M264.5-139.3c0-8.6-4.9-16.7-14.6-16.7s-14.5,8.1-14.5,16.7c0,8.6,4.6,16.3,14.5,16.3
				C259.4-123,264.5-130.2,264.5-139.3z"/>
		</g>
	</g>
	<path class="st1" d="M76.4-202.7"/>
	<path class="st0" d="M-295.1-224.2H-310c-8.2,0-14.9-6.7-14.9-14.9v0c0-8.2,6.7-14.9,14.9-14.9h0c8.2,0,14.9,6.7,14.9,14.9V-224.2z
		"/>
</g>
</svg>
