<?xml version="1.0" encoding="utf-8"?>
<!-- Generator: Adobe Illustrator 26.0.0, SVG Export Plug-In . SVG Version: 6.00 Build 0)  -->
<svg version="1.1" id="Layer_1" xmlns="http://www.w3.org/2000/svg" xmlns:xlink="http://www.w3.org/1999/xlink" x="0px" y="0px"
	 viewBox="0 0 225 214.9" style="enable-background:new 0 0 225 214.9;" xml:space="preserve">
<style type="text/css">
	.st0{fill:#55C0CE;}
</style>
<g>
	<path class="st0" d="M652.7,95.6c-9.2,0-19.2,3.8-24.8,12.8l-2.1-10.5h-18.4V38h-90.5h-31.1h-44.6h-28.9h-36.3H219.9H38v144.2
		c0,18.1,14.7,32.7,32.7,32.7h149.2h265.9h121.6v-21.3h22v-49.8c0-11.8,8.8-18.4,18.6-18.4c4.9,0,9.8,1.9,14.1,5.5l15-25
		C670.9,99,662.7,95.6,652.7,95.6z M198.7,193.8h-21.1v-101l-44.8,62.3h-4.5L84.1,92.8v101h0c-11.6,0-21.1-9.4-21.1-21.1V62.2h24.5
		l43.4,61.7l43.3-61.7h24.5V193.8z"/>
	<path class="st0" d="M730.9,95.6c-27.6,0-53.2,14.7-53.2,50.4c0,34.8,25.8,49.8,53.2,49.8c26.9,0,53.6-15,53.6-49.8
		C784.5,111.1,759.5,95.6,730.9,95.6z M730.9,166.7c-12.6,0-18.4-9.8-18.4-20.7c0-10.9,6-21.3,18.4-21.3c12.4,0,18.6,10.3,18.6,21.3
		C749.6,157.5,743.2,166.7,730.9,166.7z"/>
	<path class="st0" d="M23.7,0h-9.5C6.4,0,0,6.4,0,14.3v9.5C0,31.6,6.4,38,14.3,38H38V14.3C38,6.4,31.6,0,23.7,0z"/>
</g>
</svg>
